<svg xmlns="http://www.w3.org/2000/svg" xmlns:xlink="http://www.w3.org/1999/xlink" width="118" height="127" viewBox="0 0 118 127">
  <defs>
    <clipPath id="clip-path">
      <rect id="Rectangle_163613" data-name="Rectangle 163613" width="118" height="127" transform="translate(-2053.073 12453.992)" fill="#fff"/>
    </clipPath>
  </defs>
  <g id="Mask_Group_2" data-name="Mask Group 2" transform="translate(2053.073 -12453.992)" clip-path="url(#clip-path)">
    <g id="logo-sketch" transform="translate(-2085.369 12425.781)">
      <path id="background" d="M0,0H182.592V182.592H0Z" fill="none" fill-rule="evenodd"/>
      <g id="text" transform="translate(41.48 124.657)">
        <path id="Mask" d="M95.529,8.582c1.743,0,2.9,1,2.988,2.241a1.665,1.665,0,0,1-1.66,1.66c-1.992,0-1.494-1.494-2.324-1.494-1.859,0-3.319,2.858-4.71,5.917l-.214.471-.319.71-.318.7c-.747,1.494-1.079,1.743-1.66,1.743-1.411,0-1.66-3.735-2.241-5.395-1.162,2.49-3.486,5.395-7.138,5.395-2.158-.083-4.233-1.162-4.233-4.482,0-3.735,2.49-6.391,4.98-6.391a3.464,3.464,0,0,1,3.154,3.32c-.083,3.652-4.98,3.735-4.98,4.482s1.245,1,1.992,1c3.154,0,5.229-4.067,5.976-6.889.166-.5.581-1.494,1.494-1.494,1,0,.5,6.142,1.909,6.142.913,0,2.075-7.636,7.3-7.636ZM46.4.2c1.66-.083,2.988,1.494,3.154,3.984.332,6.64-1.909,9.3-3.071,11.7a4.141,4.141,0,0,0,3.32,2.49,2.027,2.027,0,0,0,1.411-.5A3.9,3.9,0,0,1,50.96,16.3c0-3.818,2.573-6.972,4.731-6.972,1.743,0,2.739,2.241,2.739,3.735,0,1.743-1.494,3.154-3.735,4.482a2.678,2.678,0,0,0,1.743.664c3.154.083,4.9-3.735,6.142-7.138.249-.664.664-1.577,1.411-1.577,1.328,0,1.826,8.632,4.067,8.632.913,0,1.743-1.909,1.743-3.4.083-1.162-.332-1.245-.332-2.822,0-1.743.913-3.237,2.241-3.237.83,0,1.079.747,1.079,1.66-.083,3.486-2.656,9.96-6.474,9.96-2.822,0-2.573-4.814-3.569-4.814-1.079,0-2.656,4.814-8.217,4.814a3.453,3.453,0,0,1-2.656-1.328A6.28,6.28,0,0,1,48.138,20.2c-2.075,0-2.988-2.075-3.818-2.075-1,0-2.158,2.075-5.478,2.075-2.656,0-3.154-3.486-4.067-3.486-.83,0-2.158,3.486-3.569,3.486-1.134,0-1.833-1.442-2.492-2.918l-.2-.443c-.623-1.4-1.246-2.7-2.208-2.7-.754,0-2.324,1.405-3.912,2.853l-.433.4c-1.584,1.444-3.113,2.808-3.788,2.728a.778.778,0,0,1-.747-1c.083-.747.83-2.822,1.079-3.735.5-1.66.913-3.486,1.162-4.067A1.313,1.313,0,0,1,21,10.408c.249,0,.332.415.415.83.249,1.328.664,2.739,1.079,2.739.747,0,3.4-4.814,4.9-4.814,1.909,0,2.075,7.636,4.565,7.636.83,0,1.411-1,1.992-2.158.083-1.992.664-4.9,2.324-4.9,1.162,0,1.66,2.573.83,4.814-.083,2.656,1.743,3.32,2.9,3.32a3.961,3.961,0,0,0,3.4-1.992,20.561,20.561,0,0,1-1.162-5.312C42,5.262,44.071.282,46.4.2ZM14.442,1.859c1-.332,1.411.166,1.826,1.328.5,1.743.5,4.067.332,7.3-.249,4.482-2.573,9.877-8.3,9.711-4.98-.083-7.138-3.237-7.3-7.968A21.032,21.032,0,0,1,2.075,4.6c.581-1.66,1-2.241,2.573-2.573,1.245-.249,1.079,1,.83,2.49a28.333,28.333,0,0,0-.747,8.549c.249,3.9,2.075,5.478,4.067,5.478,3.071.083,4.4-2.324,4.98-5.893a11.019,11.019,0,0,0-.166-5.063,11.859,11.859,0,0,1-.747-2.407,2.775,2.775,0,0,1,1.577-3.32ZM54.861,11.9c-.5-.083-1.66.5-1.66,2.241a3.151,3.151,0,0,0,.747,2.324,2.652,2.652,0,0,0,1.992-2.9c0-.913-.5-1.66-1.079-1.66Zm23.073-.083c-2.158,0-1.992,3.4-1.66,4.15a3.515,3.515,0,0,0,2.9-1.992c.249-.83-.083-2.158-1.245-2.158ZM46.579,3.43l-.1.006c-1.079.083-1.577,3.486-1.411,7.055.166,2.324.5,2.656.83,2.656.581,0,2.075-4.233,1.909-7.553-.083-1.494-.5-2.241-1.328-2.158ZM36.934.863a1.6,1.6,0,0,1,1.743,1.494A2.231,2.231,0,0,1,36.685,4.93a1.738,1.738,0,0,1-1.743-1.66A2.189,2.189,0,0,1,36.934.863Z" transform="translate(-0.978 -0.196)" fill="#1f36c7"/>
      </g>
      <path id="fish" d="M112.562,128.554c-.332-.581-.083-1.577-1-1.577-.581,0-.664.5-.747.913a10.367,10.367,0,0,0-3.32-.581,6.472,6.472,0,0,0-1.826.249A7.114,7.114,0,0,0,102.6,125.4c-.5,2.739-2.9,4.814-6.474,5.146a2.443,2.443,0,0,1-2.656,2.241c-.747,0-1.992-.249-2.075-.581a5.68,5.68,0,0,0-3.237-4.316c0,.249.083.581.083.83,0,2.158-1.494,3.486-4.233,3.486a8.051,8.051,0,0,1-1.411-.083c3.154,3.486,5.395,2.241,6.806,2.9,1.909.83,3.486,3.569,9.628,3.569a12.1,12.1,0,0,0,5.976-1.826,2.607,2.607,0,0,0,2.739,1.743c2.573,0,4.067-.83,4.067-1.494,0-.166,0-.415-.5-.415-.415,0-.415.083-1.826.083a5.867,5.867,0,0,1-5.561-3.569c-.249-.5-.581-.5-.664-.5-.83,0-2.158,2.988-7.387,2.988-2.241,0-3.237-.83-3.237-1a.081.081,0,0,1,.083-.083c.249,0,1,.083,1.992.083a10.6,10.6,0,0,0,7.636-3.32c.581-.664.83-.747,1.328-.747a1.3,1.3,0,0,1,1.079.913c.747,1.909,2.49,3.486,4.316,3.486,2.49,0,2.573-4.316,3.154-4.565.083,0,.249.083.332.083a.741.741,0,0,0,.747-.747c.083-.664-.664-.83-.747-1.162Zm-4.15,3.237a1.135,1.135,0,0,1-1.162-1.162,1.206,1.206,0,0,1,1.162-1.245,1.187,1.187,0,0,1,1.162,1.162A1.113,1.113,0,0,1,108.412,131.791Z" transform="translate(-14.045 -21.323)" fill="#1f36c7" fill-rule="evenodd"/>
      <path id="chilli_pepper" d="M101.277,119.2c.581,0,.83.5.913,1a.942.942,0,0,1,.664-.249.9.9,0,0,1,.5,1.66.886.886,0,0,1,.581.747.766.766,0,0,1-.83.747c-.415,0-.747-.5-1.162-.5-.249,0-.581.083-.664.249a2.929,2.929,0,0,1,.249,1.162c0,2.158-2.9,3.9-5.976,3.9-2.988,0-4.15-1.743-4.15-2.49,0-.166.083-.249.332-.249a15.536,15.536,0,0,0,1.992.166c3.237,0,2.075-4.15,5.146-4.15a2.156,2.156,0,0,1,1.66.83,1.189,1.189,0,0,0,.332-.83c0-.5-.332-.83-.332-1.245s.332-.664.747-.747Z" transform="translate(-15.541 -20.268)" fill="#1f36c7" fill-rule="evenodd"/>
      <path id="swirl" d="M78.587,116.6c3.652,0,6.474,3.071,6.474,7.47,0,1.992-1.079,4.9-5.478,4.9-5.229,0-8.383-4.4-8.383-7.221a4.245,4.245,0,0,1,2.573-4.15c-1.079,4.316,1.328,8.466,6.142,8.466,2.407,0,3.569-1.162,3.569-3.237a4.339,4.339,0,0,0-4.316-4.565c-1.328,0-2.324.747-2.324,1.826a2.907,2.907,0,0,0,3.071,2.822c1,0,1.66-.415,1.66-1.079a.5.5,0,0,0-.083-.332c-.083.083-.332.083-.664.083-1.245,0-2.241-.664-2.241-1.411a.871.871,0,0,1,.913-.913,3.3,3.3,0,0,1,3.071,3.154,2.489,2.489,0,0,1-2.656,2.49,4.978,4.978,0,0,1-5.146-4.814A3.688,3.688,0,0,1,78.587,116.6Z" transform="translate(-12.107 -19.826)" fill="#1f36c7" fill-rule="evenodd"/>
      <g id="packaging" transform="translate(99.347 103.413)">
        <path id="Path_104243" data-name="Path 104243" d="M130.573,128.4a8.824,8.824,0,0,1-5.644,1.909,7.265,7.265,0,0,1-2.573-.5c-.332,0-.664.332-1,.664a6.345,6.345,0,0,0-1.66,4.067,2.413,2.413,0,0,0,2.656,2.324c5.644,0,9.794-3.486,9.794-6.225C132.232,129.064,131.236,128.4,130.573,128.4Zm-2.9,5.395-3.237.913a6.234,6.234,0,0,0,.415-2.158,1.828,1.828,0,0,0-.083-.664h.415a6.707,6.707,0,0,0,3.569-.913c.166,0,.332.083.332.581a2.672,2.672,0,0,1-1.411,2.241Z" transform="translate(-119.7 -125.246)" fill="#1f36c7" fill-rule="evenodd"/>
        <path id="Path_104244" data-name="Path 104244" d="M126.4,128.418a4.869,4.869,0,0,0,3.237-1,.962.962,0,0,0,.332-.83v-.664c0-.83-1.328-1.328-3.154-1.328-2.158,0-3.32,1-3.32,1.411v1.328c0,.5,1.245,1.079,2.9,1.079Z" transform="translate(-120.346 -124.6)" fill="#1f36c7" fill-rule="evenodd"/>
      </g>
      <path id="clothes" d="M137.228,112.2c-4.4,0-3.237,3.735-8.383,4.9-.913.166-1.245.5-1.245.913,0,.747.415,1.743,1,1.743,2.241,0,5.644-4.565,6.308-4.565.249,0,.5,0,.5.664,0,1.66-4.814,3.818-4.814,4.98,0,.664,1.66,2.158,3.4,2.158,2.407,0,4.565-4.814,5.063-4.814.415,0,.5.249.5.581,0,1.328-1.66,3.9-4.482,4.98-.581.249-.664.5-.664.664a1.767,1.767,0,0,0,1.411,1.577c.83,0,6.391-4.814,6.391-8.632a4.742,4.742,0,0,0-4.98-5.146Zm1.992,4.15a1.239,1.239,0,0,1-.83-.249,1.809,1.809,0,0,1-1.079-1.577c0-.83.415-1.079.83-1.079,1.245,0,2.656,1.079,2.656,1.992,0,.747-.664.913-1.577.913Z" transform="translate(-21.697 -19.078)" fill="#1f36c7" fill-rule="evenodd"/>
      <path id="spoon" d="M89.8,118.342h-.747a1.892,1.892,0,0,1-.913-.249c-.5-.415-.664-2.656-1.494-3.984a3.757,3.757,0,0,0-3.486-1.909c-1,0-2.158.581-2.158,1.411,0,.5.249.83,2.158,1.328,2.407.581,3.569,1.909,3.818,3.4a6.368,6.368,0,0,0,1.079,3.237,5.081,5.081,0,0,0,3.486,1.577c1.079,0,1.909-.332,1.909-1.328-.083-1.079-1.577-3.486-3.652-3.486Zm1.577,3.237c-.913,0-2.241-.913-2.241-1.494a.727.727,0,0,1,.747-.664c.747,0,2.075.913,2.075,1.66,0,.249-.166.5-.581.5Z" transform="translate(-13.773 -19.078)" fill="#1f36c7" fill-rule="evenodd"/>
      <g id="wave" transform="translate(88.142 87.229)">
        <path id="Path_104245" data-name="Path 104245" d="M112.176,114.064c-.581,0-.581.913-.581,1.245s0,.415-.249.415-.415-.083-.664-.083a.38.38,0,0,0-.332.415c0,1.245,1.577,2.241,3.154,2.241,2.075,0,3.071-.913,3.652-.913.249,0,.332.249.332.415,0,.332-.332.747-.332.913,0,.5,1,.083,1,.664,0,.747-1.245,1.328-3.154,1.328-3.735,0-6.142-2.573-6.142-4.98,0-4.482,4.814-3.071,4.814-4.814a.99.99,0,0,0-1-.913,2.04,2.04,0,0,1,1.826-.747c.5,0,1,.083,1.411.083.581,0,1.162-.249,1.162-.913,0-.415-.332-.913-1.743-1.079.166-.913,2.075-.415,2.075-1.245,0-.581-1.079-1-2.407-1a8.8,8.8,0,0,0-8.8,8.8,8.5,8.5,0,0,0,8.549,8.715,7.781,7.781,0,0,0,7.968-7.719c-1,.913-3.652,1.162-4.98,1.162-3.9.083-4.98-1.992-5.561-1.992Z" transform="translate(-106.2 -105.1)" fill="#1f36c7" fill-rule="evenodd"/>
        <path id="Path_104246" data-name="Path 104246" d="M118.194,114.8a1.4,1.4,0,0,0,1.411-1.411c0-1.162-1.162-2.241-2.9-2.241a1.155,1.155,0,0,1,.415.913c0,.415-.249.913-.249,1.411A1.263,1.263,0,0,0,118.194,114.8Zm8.383-5.644a1.6,1.6,0,0,1,.332,1c0,.83-.581,1.66-.581,2.49a1.811,1.811,0,0,0,1.909,1.826,2.074,2.074,0,0,0,2.075-2.158C130.228,110.648,128.817,109.32,126.577,109.154ZM120.6,106a2.328,2.328,0,0,1,.581,1.577c0,1.328-1,2.656-1,3.9a2.549,2.549,0,0,0,2.656,2.739,2.757,2.757,0,0,0,2.656-2.988A5.585,5.585,0,0,0,120.6,106Zm2.324,4.731a.744.744,0,0,1-.747-.747c0-.249.166-.581.166-.913.083-.415,0-.747.249-.747.5,0,1.079.913,1.079,1.494C123.672,110.316,123.423,110.731,122.925,110.731Z" transform="translate(-107.985 -105.253)" fill="#1f36c7" fill-rule="evenodd"/>
      </g>
      <g id="bowl" transform="translate(73.618 72.788)">
        <path id="Path_104247" data-name="Path 104247" d="M98.992,106.822A3.25,3.25,0,0,1,96.751,104a4.483,4.483,0,0,0-1,2.241c0,1.992,2.739,1.992,2.739,3.32,0,.747-1.411,1.577-3.237,1.577-2.075,0-3.569-.332-4.9-1.66-.332-.332-.5-.664-.913-.664-.5,0-.747.83-.747,1.66a6.684,6.684,0,0,0,6.557,6.225c4.731,0,6.64-3.237,6.64-5.893.083-1.577-.249-2.988-2.9-3.984Zm-1.328,7.968c-.415,0-.5-.166-.5-.581,0-.249.083-.747.083-1.162,0-1,.415-.913,1.411-1.411.747-.332,1-.747,1.245-.747s.5.166.5.581C100.4,112.964,98.743,114.79,97.664,114.79Z" transform="translate(-88.7 -90.472)" fill="#1f36c7" fill-rule="evenodd"/>
        <path id="Path_104248" data-name="Path 104248" d="M93.035,99.236a4.611,4.611,0,0,1-2.158-1.162,5.09,5.09,0,0,0-1.577,3.569c0,2.9,3.071,5.312,6.059,5.312a9.146,9.146,0,0,0,1.494-.166,2.831,2.831,0,0,1-2.656-2.9c0-1.909,2.158-3.652,2.158-5.146,0-1.826-2.241-1.992-2.241-3.486,0-1.245,2.158-2.158,2.075-4.15,0-1.162-1.162-2.573-2.739-3.4a4.059,4.059,0,0,1,.415,1.577c0,2.324-4.482,3.32-4.482,5.146,0,2.324,4.316,3.237,4.316,4.316C93.7,98.988,93.533,99.236,93.035,99.236Z" transform="translate(-88.802 -87.7)" fill="#1f36c7" fill-rule="evenodd"/>
      </g>
      <path id="heart" d="M147.195,103.4c1.494,0,2.656,1.909,2.656,4.15a9.518,9.518,0,0,1-3.154,6.806c0-3.984-4.9-2.739-4.9-5.644a1.987,1.987,0,0,1,1.992-2.075,3,3,0,0,1,2.241.83,2.859,2.859,0,0,1-.83-1.909,2,2,0,0,1,1.992-2.158Z" transform="translate(-24.111 -17.582)" fill="#1f36c7" fill-rule="evenodd"/>
      <path id="flower" d="M76.136,108.07a1.822,1.822,0,0,0-1,.415,1.946,1.946,0,0,0-3.818.747,1.539,1.539,0,0,0,.166.581.827.827,0,0,0-.332.083,2.06,2.06,0,0,0-1.66,2.241,2.013,2.013,0,0,0,2.158,1.743,2.8,2.8,0,0,0,1-.332,1.943,1.943,0,0,0,2.158,1.494,2.013,2.013,0,0,0,1.743-2.158,1.286,1.286,0,0,0-.166-.664h.249a2.066,2.066,0,0,0,1.743-2.158c-.332-1.328-1.245-2.158-2.241-1.992Zm-2.158,4.067a1.126,1.126,0,0,1-1.245-1,1.148,1.148,0,0,1,1-1.328,1.126,1.126,0,0,1,1.245,1A1.148,1.148,0,0,1,73.978,112.137Z" transform="translate(-11.814 -18.185)" fill="#1f36c7" fill-rule="evenodd"/>
      <g id="transformation" transform="translate(94.948 72.788)">
        <path id="Path_104249" data-name="Path 104249" d="M139.715,100.77c0-.415,1-1.411,1-1.743a.179.179,0,0,0-.166-.166c-.415,0-1.826,1.079-3.9,1.079-.83,0-1.411-.083-1.411-.747,0-.581.5-1.079,1.328-1.411.913-.415,2.739-.415,2.739-.83,0-.332-1.743-.332-1.743-.664,0-.415.664-1.411.664-1.826,0,0,0-.166-.083-.166-.332,0-1.162,1-1.66,1s-.913-1.245-1.328-1.245c-.083,0-.249.083-.249.332,0,.5.249,1.411.249,2.656,0,1.079-.581,1.992-1.162,1.992-.747,0-1-.913-1-1.66,0-1.079.581-2.324.581-3.486,0-.249-.083-.332-.249-.332-.415,0-1.079,1.245-1.577,1.245-.332,0-.913-1.494-1.411-1.494-.083,0-.166.249-.166.581,0,.415.083,1,.083,1.245,0,.332-.415.415-.913.415-.332,0-1,0-1,.249s.664.5,1.245.913c1.079.747,2.822,1.494,2.822,3.237,0,1.577-2.241,2.656-3.818,2.988-.747.083-1.494.249-1.494.5,0,.332,1.992.415,1.992.83,0,.249-.913,1.411-.913,1.743a.081.081,0,0,0,.083.083c.332,0,1.328-.83,1.743-.83.581,0,.5,1.743.913,1.743.5,0,.332-2.573.5-3.237.332-1.162,1.162-2.324,1.909-2.324.913,0,1,1.577,1,2.324,0,1.494-1.079,3.071-1.079,3.818a.179.179,0,0,0,.166.166c.332,0,1.079-1,1.494-1s1.328,1.66,1.66,1.66c.166,0,.249-.166.249-.332,0-.5-.249-1.328-.249-1.826,0-.581,1.909-.249,1.909-.664,0-.166-.83-.5-1.328-.83-1.079-.664-2.324-2.075-2.324-3.237a.671.671,0,0,1,.581-.747c2.324,0,3.32,3.569,3.735,3.569s.166-1.577.332-1.826a.967.967,0,0,1,.581-.166c.415,0,.913.083,1.245.083.249,0,.332,0,.332-.083-.083-.5-1.909-1.079-1.909-1.577Z" transform="translate(-116.559 -88.652)" fill="#1f36c7" fill-rule="evenodd"/>
        <path id="Path_104250" data-name="Path 104250" d="M128.343,98.822c0-.747-3.237-3.237-3.9-3.237a.22.22,0,0,0-.249.249c0,.249.083.581.083.83,0,.581-.249.664-.83.664-.664,0-1.743-.249-1.743-1.328,0-2.075,3.984-1.577,4.4-3.486-1.743,0-2.573-1.162-3.735-1.162a1.225,1.225,0,0,0-1.245,1.328c0,.332.083.913.083,1.411s-.083.83-.664.83c-.5,0-.581-.581-.581-1.245,0-.581.083-1.245.083-1.66,0-3.071-3.4-1.826-3.735-4.316a7.076,7.076,0,0,0-1.079,3.486c0,3.237,4.4,2.9,4.4,5.146a.854.854,0,0,1-.83.913c-.747,0-1.245-1.577-2.407-1.577-.581,0-1,.415-1,1.328,0,.664.166,1.162.166,1.826a3.108,3.108,0,0,1-1.162,2.49c3.984-.332,4.233-3.32,5.395-3.32a.467.467,0,0,1,.5.415c0,.5-.83,1.328-.83,2.158,0,1.079,1.245,1.66,2.075,1.66,1,0,1.328-.332,1.328-1,0-.747-1.328-1.743-1.328-2.573,0-.415.415-.5,1-.5,1.245,0,1.66.166,1.66.415,0,.332-.5,1-.5,1.162a.349.349,0,0,0,.332.332C124.941,100.232,128.343,99.485,128.343,98.822Z" transform="translate(-114.4 -87.7)" fill="#1f36c7" fill-rule="evenodd"/>
      </g>
      <path id="hair" d="M79.119,87.6a7.584,7.584,0,0,0-.747,3.32c0,5.063,6.059,9.794,6.059,12.947a2.666,2.666,0,0,1-2.573,2.739,2.234,2.234,0,0,1-2.324-2.158c0-.747.5-1.411.747-1.411.083,0,.083.083.083.249a.9.9,0,0,0,1,.913.916.916,0,0,0,1-1c0-2.49-4.98-6.806-4.98-12.7a7.11,7.11,0,0,0-.581,2.739c0,2.822,2.075,5.81,2.075,8.549a2.024,2.024,0,0,1-1.909,2.075,1.581,1.581,0,0,1-1.66-1.577c0-.415.166-.83.332-.83s.083.664.747.664c.747,0,1-.5,1-1.411,0-2.49-1.411-4.233-1.411-6.806a5.1,5.1,0,0,1,.083-1.162,5.358,5.358,0,0,0-.83,3.4v3.071c0,2.075-1,2.988-2.241,2.988a1.62,1.62,0,0,1-1.577-1.743c0-.166.083-.664.249-.664.249,0,.415.664,1.079.664,1.328,0,1.411-1.245,1.411-3.818-.166-3.154,1-6.557,4.98-9.047Z" transform="translate(-12.141 -14.895)" fill="#1f36c7" fill-rule="evenodd"/>
      <path id="hand" d="M69.049,85.8c.415,0,.581.415.581.747,0,1.411-1.826,5.561-1.826,6.723,0,.166.083.332.249.332.747,0,2.241-3.237,2.739-4.814.249-.83.664-1.245,1-1.245s.581.332.581,1c0,1.577-1.494,5.395-2.822,7.885-1,1.992-2.656,4.814-2.656,6.391a3.15,3.15,0,0,0,1.328,2.656c-1.909-.083-2.739-.332-3.486-1.743-3.237,6.308,5.976,5.727,2.822,11.37-.581-1-5.146-2.075-5.146-7.968,0-5.063,4.565-8.051,4.565-10.209a1.306,1.306,0,0,0-.581-1.079c-1-.83-1-1.494-1.826-1.494-.581,0-1.245,1.328-.581,2.49a1.971,1.971,0,0,1,.415,1c0,.83-1.328,3.071-2.241,3.071S60.5,98.581,60.5,94.93c0-3.237.747-6.557,1.66-6.557.249,0,.332.166.332.415,0,.415-.083,1.162-.083,2.49,0,1.411.332,1.494.581,1.494,1,0,.83-6.225,2.49-6.225.415,0,.5.415.5.83,0,1.411-.664,3.486-.664,4.565,0,.581.166.747.415.747.83-.083,2.075-6.889,3.32-6.889Z" transform="translate(-10.287 -14.589)" fill="#1f36c7" fill-rule="evenodd"/>
      <path id="plant" d="M148.563,91.842c-1.411,0-2.158,2.49-3.569,2.573.83-3.569,4.4-5.478,4.4-8.8,0-3.818-3.154-5.146-4.482-5.976-2.158-3.154-3.735-5.644-7.3-5.644-1.494,0-2.49.249-3.486.249a4.234,4.234,0,0,1-2.739-.747s-.083,0-.083.166c0,2.822,1.494,9.13,7.8,9.13,3.4,0,4.814-1.328,5.644-1.328a3.973,3.973,0,0,1,3.569,4.15c0,1.743-1.411,3.569-1.909,3.569s-1-.83-1-1.66c0-.913.5-2.656.5-3.735,0-.415-.083-.581-.332-.581-.5,0-3.071,1.66-3.071,3.652,0,1.743,2.573,2.822,3.569,3.32a14.528,14.528,0,0,0-1.992,4.15c0-1.162-1.079-3.4-1.411-4.4-1.577-4.482-2.158-5.312-5.561-5.727.5,1.826,6.308,6.142,6.308,10.541a2.559,2.559,0,0,1-.083.83c-1.743-5.146-4.731-6.391-5.81-7.636-1.743-1.992-.747-3.9-3.569-4.98a1.6,1.6,0,0,1,.249.83c0,1-.5,2.158-.5,2.988,0,3.154,3.569,2.158,5.727,3.9,2.075,1.66,3.237,4.4,4.067,7.47.83-1.328,1.328-2.988,2.739-2.988.913,0,1.245,1.162,1.245,2.075v.415a6.691,6.691,0,0,0,2.158-4.565C149.559,92.423,149.227,91.842,148.563,91.842Zm-5.644-11.7c-.332,0-.83-.166-1.245-.166-1,0-1.743,1.411-2.241,1.411-.166,0-.249-.166-.249-.332,0-.581,1-1.245,1-1.66,0-.249-.415-.332-.581-.332-1,0-2.407,1.411-3.237,1.411-.166,0-.332-.083-.332-.249,0-.415,1.079-.913,1.079-1.328s-.415-.415-.747-.415c-.5,0-1.494.249-2.075.249-.332,0-.581-.083-.581-.332,0-.581,1.909-.249,1.909-.913,0-.332-.581-1-.581-1.328,0-.166.166-.249.332-.249.664,0,1.411,1.909,2.158,1.909.332,0,.415-.249.415-.664s-.083-.581-.083-.913.166-.415.249-.415c.5,0,.913,2.656,2.324,2.656.581,0,.166-1.66.747-1.66.332,0,.415.5.415.747.166,1.743,1.743,1.826,1.743,2.49-.083-.083-.166.083-.415.083Z" transform="translate(-22.326 -12.498)" fill="#1f36c7" fill-rule="evenodd"/>
      <g id="particles" transform="translate(95.695 61.002)">
        <path id="Path_104251" data-name="Path 104251" d="M120.363,76.239a1.082,1.082,0,1,1,0,2.158,1.082,1.082,0,1,1,0-2.158ZM128,86.7a1.175,1.175,0,0,0-1.162,1.079A1.116,1.116,0,0,0,128,88.854a1.135,1.135,0,0,0,1.162-1.162,1.055,1.055,0,0,0-1.162-1Zm-3.818-2.075a1.994,1.994,0,1,0,2.075,1.992,2.038,2.038,0,0,0-2.075-1.992Zm-3.652-.913a1.135,1.135,0,0,0-1.162,1.162,1.187,1.187,0,0,0,1.162,1.162,1.162,1.162,0,0,0,0-2.324Zm7.3,1.826a1.33,1.33,0,1,0-1.411-1.328A1.443,1.443,0,0,0,127.832,85.534ZM117.043,81.3a1.738,1.738,0,0,0-1.743,1.66,1.684,1.684,0,0,0,1.743,1.66,1.738,1.738,0,0,0,1.743-1.66A1.8,1.8,0,0,0,117.043,81.3Zm6.225,1.245a1.162,1.162,0,1,0,1.162-1.162A1.187,1.187,0,0,0,123.268,82.547Zm-2.324.332a1.745,1.745,0,1,0-1.826-1.743A1.772,1.772,0,0,0,120.944,82.879Zm6.64-1.162a1.276,1.276,0,0,0,1.245-1.245,1.155,1.155,0,0,0-1.245-1.162,1.276,1.276,0,0,0-1.245,1.245A1.206,1.206,0,0,0,127.583,81.717Zm-10.043-1.66a1.162,1.162,0,1,0-1.162-1.162A1.089,1.089,0,0,0,117.541,80.057Zm6.806-.083a1.828,1.828,0,1,0-1.909-1.826,1.861,1.861,0,0,0,1.909,1.826Zm1.411-4.316a1.082,1.082,0,1,0-1.162-1.079A1.169,1.169,0,0,0,125.758,75.658Z" transform="translate(-115.3 -73.5)" fill="#1f36c7" fill-rule="evenodd"/>
      </g>
      <path id="tree" d="M85.613,77.832c.747,0,2.075,1.245,2.407,2.573a3.594,3.594,0,0,1-.415-.083c-1,0-1.494.913-2.241,2.49,1.743-1.162,3.32-2.075,5.146-2.075,1.577,0,2.822.913,2.822,2.324a4.787,4.787,0,0,1-.664,1.909c-.249-1.328-1.328-1.909-3.237-1.909a10.245,10.245,0,0,0-3.486.581c3.4.5,3.9,1.66,3.9,2.739,0,1.826-1.909,2.739-3.154,3.32a9.957,9.957,0,0,0,.249-1.66,4.168,4.168,0,0,0-2.158-3.569c-.249,1.162-1.245,1.909-1.245,2.822a.467.467,0,0,0,.415.5c0,.5-.249,1.992-.249,2.407,0,.747.166.913.581,1,.249.664.249,1.826.415,2.407a.531.531,0,0,0,.581.415,4.456,4.456,0,0,0,1.079,1.826.947.947,0,0,1,.249.5c0,.5-.83,1.079-1.328,1.079-.166,0-.415-.083-.664-.664-.166-.415-1.66-1.328-1.743-1.826a.7.7,0,0,0,.166-.5c0-.83-1.328-1.743-1.328-3.071a.7.7,0,0,0,.332-.581c0-.747-.747-2.158-.747-3.154.332,0,.5,0,.5-.5a4.863,4.863,0,0,1,1.162-3.237c-.249,0-.5-.083-.83-.083a6.427,6.427,0,0,0-5.644,3.32,4.041,4.041,0,0,1-.083-1,3.905,3.905,0,0,1,2.075-3.569,4.492,4.492,0,0,1,1.577-.249,15.727,15.727,0,0,1,3.237.415,5.352,5.352,0,0,0-3.9-2.241c-.581,0-1.079.166-1.245.664a3.72,3.72,0,0,1-.083-1c0-1.411.5-2.241,1.743-2.241,1.826,0,3.486,2.158,4.4,4.15v-.249c0-2.822.083-4.233,1.245-4.316l.166.332Z" transform="translate(-12.991 -13.178)" fill="#1f36c7" fill-rule="evenodd"/>
      <g id="bee" transform="translate(49.549 52.205)">
        <path id="Path_104252" data-name="Path 104252" d="M59.7,80.08c0,2.241.747,3.32,1.992,3.32,1,0,2.324-.664,3.9-1.992a15.843,15.843,0,0,1-2.988.415,3.316,3.316,0,0,1-2.9-1.743Zm8.632-3.071a2.764,2.764,0,0,0-2.158,2.49,1.747,1.747,0,0,0,1.909,1.743,1.723,1.723,0,0,0,1.245-.332,3.493,3.493,0,0,1-1.162-2.573A5.2,5.2,0,0,1,68.332,77.009ZM70.9,74.6a5.551,5.551,0,0,0-1.411,3.4,2.671,2.671,0,0,0,2.573,2.9,2.289,2.289,0,0,0,2.241-2.49C74.39,76.428,72.481,75.017,70.9,74.6ZM60.779,77.424v.415c0,1.411.747,2.158,1.826,2.158a3.4,3.4,0,0,0,2.49-1.411,4.733,4.733,0,0,1-1.079.083,3.6,3.6,0,0,1-3.237-1.245Zm6.142-7.636a6.333,6.333,0,0,0-3.569.913c-2.656,1.66-2.324,4.316-2.739,5.063-.083.083-.083.166-.083.332a.705.705,0,0,0,.581.581,2.935,2.935,0,0,0,.5-.083c.747,0,1.577.5,2.822.5A5.865,5.865,0,0,0,67,76.345a6.156,6.156,0,0,0,3.071-4.15c0-.581-.5-.5-.83-1-.415-.5-.249-1-.5-1.245-.166-.166-.581-.166-1.162-.166h-.664Zm-1.826,5.893a2.563,2.563,0,0,1-2.158-2.324c0-.581.5-1.328.83-1.328.083,0,.166.083.249.332a3.362,3.362,0,0,0,2.075,2.656c.083.083.166.083.166.166-.083.249-.664.5-1.162.5Zm3.652-2.739a.837.837,0,0,1-.747.913c-1.079,0-1.909-1.577-1.992-2.49,0-.581.332-.581.83-.581a.9.9,0,0,1,.5.083c.249.166.249.747.581,1.162.249.332.83.664.83.913Zm2.324-1.328a1.248,1.248,0,1,0,1.245-1.162A1.155,1.155,0,0,0,71.07,71.615Zm-.415-1.494a1.165,1.165,0,1,0-1.245-1.162A1.331,1.331,0,0,0,70.656,70.121Zm-8.383-.581a3.815,3.815,0,0,0,1.992-.664,3.455,3.455,0,0,1-2.822-3.486v-.5a2.5,2.5,0,0,0-1.66,2.324,2.408,2.408,0,0,0,2.49,2.324Zm5.395-1.328a5.518,5.518,0,0,0,.249-1.743c0-1.411-.664-3.569-2.822-3.569a1.987,1.987,0,0,0-2.075,1.992C63.1,67.3,65.593,68.212,67.668,68.212Z" transform="translate(-59.7 -62.9)" fill="#1f36c7" fill-rule="evenodd"/>
      </g>
      <g id="ice_cream" transform="translate(117.606 52.288)">
        <path id="Path_104253" data-name="Path 104253" d="M150,67.482a6.222,6.222,0,0,1-5.727,3.071c.332,2.739,4.4,6.391,5.478,6.308.747-.083,1-3.569,1-6.308,0-1.577.083-2.822-.747-3.071Zm.083-2.573A1.7,1.7,0,0,0,148.507,63a1.491,1.491,0,0,1,.249.913c0,1.577-2.324,3.32-4.9,3.32-.913,0-1.245.664-1.162,1,0,.83.747,1.162,1.826,1.162,2.9-.083,5.561-2.407,5.561-4.482Z" transform="translate(-141.868 -63)" fill="#1f36c7" fill-rule="evenodd"/>
        <path id="Path_104254" data-name="Path 104254" d="M143.692,66.154c1.162,0,3.652-1,3.652-2.324a.74.74,0,0,0-.83-.83c-.913,0-2.158.913-3.4.913a4.353,4.353,0,0,1-1.411-.166c.5.332.415,1.162.664,1.743A1.325,1.325,0,0,0,143.692,66.154Z" transform="translate(-141.7 -63)" fill="#1f36c7" fill-rule="evenodd"/>
      </g>
      <g id="cycle" transform="translate(95.778 52.288)">
        <path id="Path_104255" data-name="Path 104255" d="M123.617,67.6a3.416,3.416,0,0,1-3.486,3.735,2.3,2.3,0,0,1-1.079-.249,2.108,2.108,0,0,0,.664-1.162c0-.249-.166-.332-.415-.332-.166,0-.581.083-.913.083a3.026,3.026,0,0,1-2.241-1.079,5.019,5.019,0,0,0-.747,2.739c0,1.577.581,3.154,1.245,3.237.332,0,.332-1.079.913-1.079a5.548,5.548,0,0,0,2.241.5,4.186,4.186,0,0,0,4.4-4.482,6.221,6.221,0,0,0-.581-1.909Z" transform="translate(-115.4 -63.782)" fill="#1f36c7" fill-rule="evenodd"/>
        <path id="Path_104256" data-name="Path 104256" d="M119.056,65.158a2,2,0,0,1,1.494.581,1.227,1.227,0,0,0-.664.913.456.456,0,0,0,.249.415,2.894,2.894,0,0,1,1.411,1.411c1.328-.747,1.826-2.822,1.826-3.984,0-.332,0-.83-.332-.83-.249,0-.5.332-.83.332a5.027,5.027,0,0,0-2.822-1,2.846,2.846,0,0,0-2.988,2.9,3.567,3.567,0,0,0,.166,1,2.875,2.875,0,0,1,2.49-1.743Z" transform="translate(-115.57 -63)" fill="#1f36c7" fill-rule="evenodd"/>
      </g>
      <path id="DNA" d="M91.579,67.207c-1.494,0-2.822,1.245-3.818,2.9a4.041,4.041,0,0,0,.083-1c0-2.324-1.245-4.316-3.486-4.316a4.356,4.356,0,0,0-4.233,3.237,2.474,2.474,0,0,1,1.328-.581c.581,0,.747.5.747,1.328a4.611,4.611,0,0,1-.332,1.743c-.332,1-1,1.245-1.328,1.245-1.411,0-.747-2.407-1.494-2.407-.581,0-.747,1.328-.747,1.826a3.281,3.281,0,0,0,3.486,3.4c2.573,0,3.984-1.245,5.478-2.822.332,1.743,1.245,4.814,3.818,4.814a2.57,2.57,0,0,0,2.49-2.573,1.052,1.052,0,0,1-.747.332c-.5,0-.664-.747-.664-1.411,0-1.079.332-2.241.83-2.241.249,0,.415.166.5,1,.083.581,0,1.328.415,1.328s.581-1.245.581-1.992c-.083-2.158-1-3.9-2.9-3.818Zm-8.549,5.644c-.249,0-.332-.249-.332-.415,0-1.162,1.245-6.308,2.158-6.308.166,0,.249.166.249.415C85.106,67.456,84.027,72.851,83.031,72.851Zm3.818-2.241c-.747.83-1.162,1.245-1.494,1.245-.166,0-.332-.332-.332-.664,0-.581.415-2.988,1.328-2.988.332,0,.581.664.581,1.245a4.749,4.749,0,0,1-.083,1.162Zm1.743,2.075c-.249,0-.5-.5-.5-1.494.5-.83.747-1.162,1.079-1.162.083,0,.249.083.249.581-.083,1.079-.5,2.075-.83,2.075Zm1.494,1.743c-.166,0-.332-.249-.332-.913,0-1.577,1-4.482,1.577-4.482.166,0,.249.415.249.83C91.662,71.606,90.832,74.428,90.085,74.428Z" transform="translate(-13.314 -11.018)" fill="#1f36c7" fill-rule="evenodd"/>
      <path id="lips" d="M136.6,63.481c-.581,0-1.494.664-2.158.664-.913,0-.664-1.245-1.66-1.245a1.339,1.339,0,0,0-.747.249c-2.075,1.079-3.735.664-4.067.913-.083.083-.166.083-.166.332a6.289,6.289,0,0,0,6.142,5.81c2.656,0,4.814-.913,4.814-2.49-.083-1.328-1.328-4.233-2.158-4.233Zm-2.407,4.482c-2.158,0-3.486-1.245-3.486-1.992a.179.179,0,0,1,.166-.166c.332,0,1.245.5,2.49.664a13.424,13.424,0,0,0,2.573.249c.415,0,.581.083.581.249-.083.415-1.079,1-2.324,1Z" transform="translate(-21.731 -10.695)" fill="#1f36c7" fill-rule="evenodd"/>
      <path id="dove" d="M149.441,46.715c-1.494,0-1.66-.415-2.656-.415a1.94,1.94,0,0,0-1.992,2.075c0,.415.166,1.079.166,1.909,0,1-.166,1.992-1.079,1.992a1.11,1.11,0,0,1-1.162-1.245c0-1.162.581-1.992.581-2.739,0-1.411-1.66-1.826-3.486-1.826-2.158,0-4.482.581-4.482.913,0,.5,3.071.166,5.312,3.071-1.411,0-4.15.664-4.15,1.079,0,.5,4.98,1,4.98,3.071a1.4,1.4,0,0,1-1.494,1.494c-1.66,0-2.49-1.743-2.9-1.743a.265.265,0,0,0-.249.249,14.039,14.039,0,0,1,.249,1.743c0,1.909-2.075,2.075-2.075,2.49,0,.166.083.166.332.249a27.836,27.836,0,0,0,4.482.332c5.312,0,9.545-1.66,9.545-6.308,0-2.573-.83-3.4-.83-4.648a1.713,1.713,0,0,1,.913-1.743Zm-7.387,10.126h-1.079c3.4-.581,5.312-2.573,5.312-5.229a1.9,1.9,0,0,1,1.245,1.826c-.083,1.577-1.494,3.4-5.478,3.4Zm4.731-8.051a.747.747,0,1,1,.747-.747A.744.744,0,0,1,146.785,48.79Z" transform="translate(-22.955 -7.873)" fill="#1f36c7" fill-rule="evenodd"/>
      <path id="spark" d="M125.426,45.566c-1.992,0-3.486,1-4.316,1-.5,0-1.162-1.162-1.577-1.162-.166,0-.332.332-.332.83V46.4c0,.415-.083,1.162-.332,1.162-.747,0-3.569-1.992-3.569-1.328s1.909,2.739,1.909,3.237-1.826,1-1.826,1.411c0,.664,1.992.747,1.992,1.577S115.3,53.949,115.3,54.53c0,.5,2.075.166,2.075.747s-1.494,2.656-1.494,3.237c0,.166,0,.166.166.166.581,0,2.324-1.909,2.739-1.909.5,0,.581,1.162.664,1.826.083.332.083.415.249.415.332,0,.913-1.328,1.328-1.328.581,0,2.075,1.577,4.648,1.577a6.751,6.751,0,0,0,7.055-6.889c.083-4.316-3.071-6.806-7.3-6.806Zm-5.063,9.462c-.083,0-.166-.083-.166-.249l-.083-1.162a.265.265,0,0,0-.249-.249H118.62c-.166,0-.249,0-.249-.083,0-.249,1.245-1.079,1.245-1.245,0-.332-1.162-.913-1.162-1.328,0-.083.083-.083.166-.083.332,0,.913.083,1.328.083s.415-1.66.747-1.66c.249,0,.581,1.577.913,1.577.415,0,1.079-.415,1.411-.415.083,0,.083,0,.083.083,0,.166-.747,1-.747,1.245s1.66.581,1.66.83c0,.332-1.743.249-1.743.5,0,.166.664,1,.664,1.328,0,.083,0,.083-.083.083-.249,0-1.162-.415-1.411-.415-.332,0-.83,1.162-1.079,1.162Zm5.146,2.573c-2.075,0-3.486-1-3.486-1.577a.392.392,0,0,1,.415-.415c.664,0,2.075,1,2.573,1a.265.265,0,0,0,.249-.249c0-.5-.5-1.411-.5-1.826,0-.083.083-.166.249-.166.83,0,1.992.332,2.656.332.249,0,.249-.083.249-.249,0-.664-1.992-1.909-1.992-2.324,0-.332,2.407-.913,2.407-1.411,0-.581-3.32-.166-3.32-.747,0-.415.664-1.079.664-1.411,0-.166-.083-.166-.332-.166a23.529,23.529,0,0,1-2.324.581c-.332,0-.664-.083-.664-.5,0-.664,1.162-1.411,2.988-1.411,2.988,0,4.731,1.992,4.731,5.312.083,4.15-2.9,5.229-4.565,5.229Z" transform="translate(-19.605 -7.72)" fill="#1f36c7" fill-rule="evenodd"/>
      <g id="sun" transform="translate(50.296 37.846)">
        <path id="Path_104257" data-name="Path 104257" d="M84.669,54.066c1.162,0,4.648,1.577,6.225,1.577.581,0,.913-.332.913-.664,0-1.826-4.9-5.063-4.98-6.391a.431.431,0,0,1,.166-.332c.83-.913,4.316-1.494,4.316-2.241,0-.415-.747-.415-1.079-.415-2.822,0-6.889,1-6.889,1.992s3.652,3.486,3.652,4.731c0,.332-.249.415-.581.415-1,0-3.237-1.245-4.316-1.245-.5,0-.664.332-.664.83,0,1.411,1.743,4.15,1.743,4.98,0,.083,0,.249-.166.249-.581,0-3.071-2.988-3.984-2.988-.332,0-.332.415-.332,1.079v1c0,.664,0,1.079-.332,1.079-.747,0-1.162-2.158-1.909-2.158s-.913,3.9-1.66,3.9c-.913,0-.166-4.233-1-4.233-.913,0-1.992,2.822-2.656,2.822-.249,0-.332-.249-.332-.415,0-.83.5-2.241.5-3.071,0-.415-.083-.664-.5-.664-.913,0-2.988,1.494-3.735,1.494-.083,0-.249-.083-.249-.166,0-.747,3.32-2.988,3.32-3.984s-4.565-.332-4.565-1.494c0-.913,3.237-1.909,3.237-2.9,0-.83-3.818-1.245-5.312-1.245-1.743,0-2.739.249-2.739.747,0,.747,4.067,1,4.067,1.66S60.6,50.414,60.6,51.41c0,.913,5.893.083,5.893,1,0,1-5.146,5.395-5.146,6.889,0,.332.249.5.581.5,1.577,0,5.644-2.988,6.723-2.988.415,0,.415.5.415.913,0,.747-.249,1.992-.249,2.822,0,.664.166,1.162.747,1.162,1.079,0,2.158-1.909,2.9-1.909,1,0,.415,5.478,1.826,5.478,1.245,0,1.743-5.976,2.49-5.976s1.411,1.743,2.158,1.743c.913,0,.5-2.988,1.411-2.988,1.079,0,4.067,3.569,5.478,3.569.415,0,.581-.332.581-.747,0-1.577-2.241-5.146-2.241-6.308.083-.415.166-.5.5-.5Z" transform="translate(-60.6 -45.6)" fill="#1f36c7" fill-rule="evenodd"/>
        <path id="Path_104258" data-name="Path 104258" d="M86.612,56.158a.178.178,0,0,0-.166.166c0,1.079,3.818,6.142,4.482,6.142.581,0,1.079-1.079,1.079-1.909a1.564,1.564,0,0,0-.166-.664c-.581-.83-4.4-3.735-5.229-3.735Zm-22.326-2.9c0-.249-.5-.332-.913-.332a3.734,3.734,0,0,0-1.992.5,2.5,2.5,0,0,0-.581,1.66c0,.332.083.664.415.664.747.083,3.071-1.909,3.071-2.49Zm5.395-3.735c.664,0,1.743-.332,2.49-.332.415,0,.83.083.83.5,0,.747-1.66,2.075-1.66,2.656,0,.166.166.249.332.249.581,0,1.66-1.494,2.573-1.494,1.577,0,.581,3.4,1.411,3.4.913,0,.5-3.32,1.826-3.32,1.079,0,1.826,2.324,2.573,2.324a.357.357,0,0,0,.332-.332c0-.664-.913-1.909-.913-2.739,0-.5.332-.747.83-.747.664,0,1.66.415,2.158.415.166,0,.332-.083.332-.249,0-.747-2.656-1.494-2.656-2.407s1.494-.913,1.494-1.328c0-.166-.913-.332-2.158-.332-1.992,0-1.66,1.577-3.237,1.577s-1.162-1.66-3.154-1.66c-1.245,0-2.324.249-2.324.5,0,.332,1.411.166,1.411,1.162,0,1.079-3.071,1.328-3.071,1.992,0,.083.249.166.581.166ZM88.687,49.1c0,.5,1.909,1.66,2.739,1.66.5,0,.664-.664.664-1.411,0-.913-.415-.913-1.162-.913C89.932,48.439,88.687,48.688,88.687,49.1Z" transform="translate(-60.634 -45.617)" fill="#1f36c7" fill-rule="evenodd"/>
      </g>
    </g>
  </g>
</svg>
